<svg width="371" height="160" viewBox="0 0 371 160" fill="none" xmlns="http://www.w3.org/2000/svg">
<path d="M291 127.5V31.5C291 30.75 291.25 30.1667 291.75 29.75C292.333 29.25 292.917 29 293.5 29H336.125C336.875 29 337.458 29.2917 337.875 29.875C338.375 30.375 338.625 30.9167 338.625 31.5V42.125C338.625 42.875 338.333 43.5 337.75 44C337.25 44.4167 336.708 44.625 336.125 44.625H306.625V71.625H328.125C328.875 71.625 329.458 71.9167 329.875 72.5C330.375 73 330.625 73.5417 330.625 74.125V84.875C330.625 85.625 330.333 86.25 329.75 86.75C329.25 87.1667 328.708 87.375 328.125 87.375H306.625V114.375H336.125C336.875 114.375 337.458 114.667 337.875 115.25C338.375 115.75 338.625 116.292 338.625 116.875V127.5C338.625 128.25 338.333 128.875 337.75 129.375C337.25 129.792 336.708 130 336.125 130H293.5C292.75 130 292.125 129.75 291.625 129.25C291.208 128.667 291 128.083 291 127.5Z" fill="white"/>
<path d="M234 127.5V31.5C234 30.75 234.25 30.1667 234.75 29.75C235.333 29.25 235.917 29 236.5 29H247.125C247.875 29 248.458 29.2917 248.875 29.875C249.375 30.375 249.625 30.9167 249.625 31.5V114.375H279.125C279.875 114.375 280.458 114.667 280.875 115.25C281.375 115.75 281.625 116.292 281.625 116.875V127.5C281.625 128.25 281.333 128.875 280.75 129.375C280.25 129.792 279.708 130 279.125 130H236.5C235.75 130 235.125 129.75 234.625 129.25C234.208 128.667 234 128.083 234 127.5Z" fill="white"/>
<path d="M200.875 82.25C203.042 82.25 204.958 81.5 206.625 80C208.208 78.3333 209 76.375 209 74.125V52.875C209 50.625 208.208 48.7083 206.625 47.125C204.958 45.4583 203.042 44.625 200.875 44.625H192.625V82.25H200.875ZM177 127.5V31.5C177 30.75 177.25 30.1667 177.75 29.75C178.333 29.25 178.917 29 179.5 29H200.875C207.375 29 212.958 31.375 217.625 36.125C222.292 40.7917 224.625 46.375 224.625 52.875V74.125C224.625 80.7083 222.292 86.3333 217.625 91C212.958 95.6667 207.375 98 200.875 98H192.625V127.5C192.625 128.25 192.333 128.875 191.75 129.375C191.25 129.792 190.708 130 190.125 130H179.5C178.75 130 178.125 129.75 177.625 129.25C177.208 128.667 177 128.083 177 127.5Z" fill="white"/>
<path d="M143.375 93L136 63.125L128.5 93H143.375ZM104.25 126.875L128.25 30.875C128.5 29.625 129.292 29 130.625 29H141.25C142.583 29 143.375 29.625 143.625 30.875L167.625 126.875C167.708 127.292 167.75 127.667 167.75 128C167.75 129.333 166.917 130 165.25 130H154.625C153.292 130 152.5 129.375 152.25 128.125L147.25 108.625H124.625L119.625 128.125C119.375 129.375 118.583 130 117.25 130H106.625C106.292 130 105.958 130 105.625 130C105.292 129.917 104.917 129.625 104.5 129.125C104.25 128.792 104.125 128.375 104.125 127.875C104.125 127.542 104.167 127.208 104.25 126.875Z" fill="white"/>
<path d="M94.625 31.5V127.5C94.625 128.25 94.3333 128.875 93.75 129.375C93.25 129.792 92.7083 130 92.125 130H81.5C80.75 130 80.125 129.75 79.625 129.25C79.2083 128.667 79 128.083 79 127.5V94.5L70.5 128.125C70.25 129.375 69.4583 130 68.125 130H57.5C56.1667 130 55.375 129.375 55.125 128.125L46.625 94.25V127.5C46.625 128.25 46.3333 128.875 45.75 129.375C45.25 129.792 44.7083 130 44.125 130H33.5C32.75 130 32.125 129.75 31.625 129.25C31.2083 128.667 31 128.083 31 127.5V31.5C31 30.75 31.25 30.1667 31.75 29.75C32.3333 29.25 32.9167 29 33.5 29H44.125C45.4583 29 46.25 29.625 46.5 30.875L62.875 95.875L79.125 30.875C79.375 29.625 80.1667 29 81.5 29H92.125C92.875 29 93.4583 29.2917 93.875 29.875C94.375 30.375 94.625 30.9167 94.625 31.5Z" fill="white"/>
</svg>
